<svg width="24" height="25" fill="none" xmlns="http://www.w3.org/2000/svg"><path d="M0 12.63c0-6.627 5.373-12 12-12s12 5.373 12 12c0 6.628-5.373 12-12 12s-12-5.372-12-12Z" fill="#333"/><path d="M9.6 19.83a2.4 2.4 0 0 0 2.4-2.4v-2.4H9.6a2.4 2.4 0 1 0 0 4.8Z" fill="#0ACF83"/><path d="M7.2 12.63a2.4 2.4 0 0 1 2.4-2.4H12v4.8H9.6a2.4 2.4 0 0 1-2.4-2.4Z" fill="#A259FF"/><path d="M7.2 7.83a2.4 2.4 0 0 1 2.4-2.4H12v4.8H9.6a2.4 2.4 0 0 1-2.4-2.4Z" fill="#F24E1E"/><path d="M12 5.43h2.4a2.4 2.4 0 1 1 0 4.8H12v-4.8Z" fill="#FF7262"/><path d="M16.8 12.63a2.4 2.4 0 1 1-4.8 0 2.4 2.4 0 0 1 4.8 0Z" fill="#1ABCFE"/></svg>